<?xml version="1.0" encoding="utf-8"?>
<!-- Generator: Adobe Illustrator 19.0.0, SVG Export Plug-In . SVG Version: 6.00 Build 0)  -->
<svg version="1.1" id="Layer_1" xmlns="http://www.w3.org/2000/svg" xmlns:xlink="http://www.w3.org/1999/xlink" x="0px" y="0px"
	 viewBox="0 0 657 784.4" style="enable-background:new 0 0 657 784.4;" xml:space="preserve">
<style type="text/css">
	.st0{clip-path:url(#XMLID_19_);fill:#13E2BF;}
	.st1{clip-path:url(#XMLID_19_);fill:none;stroke:#F94867;stroke-width:20;stroke-miterlimit:10;}
</style>
<g id="XMLID_4_">
	<defs>
		<path id="XMLID_3_" d="M0,388c63.4,5.9,126.2,18.1,187.3,36.3c-1.1-25.7-14.4-49-26.7-71.6C100.8,243,57.5,124.3,32.3,2
			C74.9-8.5,114.8,24.5,146.4,55c51.9,50.2,104.2,100.9,145.2,160.3c16.8,24.4,31.6,50,47.1,75.2c2.5,4,5.7,8.4,10.4,8.6
			c3.9,0.1,7.1-2.8,9.9-5.4c36.8-34.4,87.8-53.3,138.1-51.1c19,0.8,41.2,7.1,47.4,25.1c4.4,12.6-0.9,26.4-6,38.7
			c-46.5,112.4-83.1,228.8-109.5,347.4c38.2-15.5,72.9-39.7,100.5-70.4c41.7-46.2,69.6-108.3,125.1-136.5
			c10.7,88.3-15.2,180.5-70.3,250.4c-23.6,29.9-52,55.6-80.3,81.1c-2.6,2.4-5.4,4.8-8.8,5.5c-3.6,0.8-7.4-0.5-10.9-1.7
			c-46.4-16.4-92.7-34.4-139.7-48.9c-3.1,46.3-79.2-25.1-94.2-37.3c-34.3-27.8-66.6-58-96.8-90.2C92.8,540.9,40.7,467.4,0,388z"/>
	</defs>
	<clipPath id="XMLID_19_">
		<use xlink:href="#XMLID_3_"  style="overflow:visible;"/>
	</clipPath>
	<rect id="XMLID_1_" x="49.3" y="130.2" class="st0" width="558.3" height="525"/>
	<path id="XMLID_2_" class="st1" d="M354.5,762.5c-31.8,3.9-61-16.5-86.5-35.8C198.1,674,128.3,621.3,58.5,568.6
		c-17.8-13.5-35.9-27.2-49-45.3c-22.3-30.9-27.4-70.7-29.8-108.7c-1.1-18.1-1.4-37.9,9.7-52.4c12.5-16.4,35.3-20.5,55.9-21.1
		c84.8-2.5,169.8,35.2,225.1,99.5c60.2,70.1,88.2,170.9,168.4,216.9c5,2.9,11.2,5.5,16.3,2.9c3.4-1.8,5.3-5.4,7-8.9
		c19.8-40.2,37.2-81.6,52.1-123.8c3.1-8.7,6.1-17.8,5-27c-1.7-14.8-13.5-26.1-24.4-36.2c-36.6-33.9-71.8-69.4-105.5-106.2
		c-50.9-55.7-101-121.8-98.9-197.2c1.4-50.9,26.8-97.9,54.8-140.5c3.5-5.4,7.5-11.1,13.6-13.2c9.6-3.5,19.7,3.2,27.8,9.5
		c24.6,19.2,49.1,38.4,73.7,57.6c47.5,37.1,95,74.3,140.6,113.8c62.6,54.3,123.7,117.2,144.7,197.3c8.8,33.5,8.8,72.7-14.2,98.7
		c-16,18.1-40.2,26.5-64,30.6c-113.3,19.5-235.3-53.4-271.7-162.4c-9.2-27.4-17-60.7-44-71c-32.1-12.3-63.1,17.4-92.3,35.5
		c-9.7,6-20.5,11.4-26,21.4c-4.1,7.5-4.5,16.3-4.4,24.8c0.1,52,10.7,103.5,25.9,153.3c10.9,35.9,24.2,71.1,39.8,105.3"/>
</g>
</svg>
